<svg width="498" height="497" viewBox="0 0 498 497" fill="none" xmlns="http://www.w3.org/2000/svg">
<path opacity="0.2" d="M248.875 0L248.923 248.256L343.972 18.9159L249.013 248.294L424.591 72.784L249.081 248.362L478.459 153.403L249.119 248.452L497.375 248.5L249.119 248.548L478.459 343.597L249.081 248.638L424.591 424.216L249.013 248.706L343.972 478.084L248.923 248.744L248.875 497L248.827 248.744L153.778 478.084L248.737 248.706L73.159 424.216L248.669 248.638L19.2909 343.597L248.631 248.548L0.375 248.5L248.631 248.452L19.2909 153.403L248.669 248.362L73.159 72.784L248.737 248.294L153.778 18.9159L248.827 248.256L248.875 0Z" fill="#F0C3D2" stroke="#E6E6E6" stroke-width="4"/>
</svg>
