<svg width="391" height="414" viewBox="0 0 391 414" fill="none" xmlns="http://www.w3.org/2000/svg">
<path opacity="0.2" d="M207.937 218.842C208.329 223.256 200.122 225.673 195.869 218.842C191.271 212.808 194.651 198.795 207.937 194.749C220.45 189.96 240.25 199.154 244.141 218.842C249.099 237.773 234.127 263.312 207.937 267.03C182.56 272.147 151.114 251.425 147.596 218.842C142.264 187.054 168.883 149.912 207.937 146.561C246.233 141.077 289.227 173.393 292.414 218.842C298.085 263.495 259.911 312.234 207.937 315.216C156.73 321.067 102.151 277.149 99.3241 218.842C93.3014 161.293 143.053 101.021 207.937 98.3744C272.002 92.1941 338.235 147.639 340.686 218.842C347.077 289.249 285.702 361.125 207.937 363.403C130.953 369.951 53.1663 302.91 51.0515 218.842C44.3316 135.571 117.255 52.1069 207.937 50.1872C297.809 43.2727 387.212 121.917 388.959 218.842C396.054 315.01 311.501 410.007 207.937 411.591C105.186 418.842 4.15815 328.662 2.77901 218.842C-4.65339 109.817 91.4701 3.21611 207.937 2" stroke="white" stroke-width="3" stroke-linecap="round"/>
</svg>
