<svg width="40" height="18" viewBox="0 0 40 18" fill="none" xmlns="http://www.w3.org/2000/svg">
<path d="M7.08367 14.1V17H5.34367C4.10367 17 3.13701 16.7 2.44367 16.1C1.75034 15.4867 1.40367 14.4933 1.40367 13.12V8.68H0.0436725V5.84H1.40367V3.12H4.82367V5.84H7.06367V8.68H4.82367V13.16C4.82367 13.4933 4.90367 13.7333 5.06367 13.88C5.22367 14.0267 5.49034 14.1 5.86367 14.1H7.08367ZM10.7087 4.68C10.1087 4.68 9.61534 4.50667 9.22867 4.16C8.85534 3.8 8.66867 3.36 8.66867 2.84C8.66867 2.30667 8.85534 1.86667 9.22867 1.52C9.61534 1.16 10.1087 0.979999 10.7087 0.979999C11.2953 0.979999 11.7753 1.16 12.1487 1.52C12.5353 1.86667 12.7287 2.30667 12.7287 2.84C12.7287 3.36 12.5353 3.8 12.1487 4.16C11.7753 4.50667 11.2953 4.68 10.7087 4.68ZM12.4087 5.84V17H8.98867V5.84H12.4087ZM14.2071 11.4C14.2071 10.2533 14.4204 9.24667 14.8471 8.38C15.2871 7.51333 15.8804 6.84667 16.6271 6.38C17.3738 5.91333 18.2071 5.68 19.1271 5.68C19.9138 5.68 20.6004 5.84 21.1871 6.16C21.7871 6.48 22.2471 6.9 22.5671 7.42V5.84H25.9871V17H22.5671V15.42C22.2338 15.94 21.7671 16.36 21.1671 16.68C20.5804 17 19.8938 17.16 19.1071 17.16C18.2004 17.16 17.3738 16.9267 16.6271 16.46C15.8804 15.98 15.2871 15.3067 14.8471 14.44C14.4204 13.56 14.2071 12.5467 14.2071 11.4ZM22.5671 11.42C22.5671 10.5667 22.3271 9.89333 21.8471 9.4C21.3804 8.90667 20.8071 8.66 20.1271 8.66C19.4471 8.66 18.8671 8.90667 18.3871 9.4C17.9204 9.88 17.6871 10.5467 17.6871 11.4C17.6871 12.2533 17.9204 12.9333 18.3871 13.44C18.8671 13.9333 19.4471 14.18 20.1271 14.18C20.8071 14.18 21.3804 13.9333 21.8471 13.44C22.3271 12.9467 22.5671 12.2733 22.5671 11.42ZM35.2613 5.72C36.568 5.72 37.608 6.14667 38.3813 7C39.168 7.84 39.5613 9 39.5613 10.48V17H36.1613V10.94C36.1613 10.1933 35.968 9.61333 35.5813 9.2C35.1947 8.78667 34.6747 8.58 34.0213 8.58C33.368 8.58 32.848 8.78667 32.4613 9.2C32.0747 9.61333 31.8813 10.1933 31.8813 10.94V17H28.4613V5.84H31.8813V7.32C32.228 6.82667 32.6947 6.44 33.2813 6.16C33.868 5.86667 34.528 5.72 35.2613 5.72Z" fill="#292929"/>
</svg>
