<svg width="91" height="51" viewBox="0 0 91 51" fill="none" xmlns="http://www.w3.org/2000/svg">
<path d="M2.02136 13.3441C2.02136 12.4356 1.28424 11.6989 0.375 11.6989V0C7.75003 0 13.7287 5.97436 13.7287 13.3441V37.6559C13.7287 38.5644 14.4658 39.3011 15.375 39.3011C16.2843 39.3011 17.0213 38.5644 17.0213 37.6559V13.3441C17.0213 5.97436 23 0 30.3751 0C37.75 0 43.7286 5.97436 43.7286 13.3441V37.6559C43.7286 38.5644 44.4659 39.3011 45.375 39.3011C46.2841 39.3011 47.0214 38.5644 47.0214 37.6559V13.3441C47.0214 5.97436 53 0 60.3749 0C67.7501 0 73.7287 5.97436 73.7287 13.3441V37.6559C73.7287 38.5644 74.4656 39.3011 75.3751 39.3011C76.2842 39.3011 77.0215 38.5644 77.0215 37.6559V13.3441C77.0215 5.97436 83.0001 0 90.375 0V11.6989C89.4659 11.6989 88.7286 12.4356 88.7286 13.3441V37.6559C88.7286 45.0256 82.75 51 75.3751 51C67.9998 51 62.0213 45.0256 62.0213 37.6559V13.3441C62.0213 12.4356 61.2844 11.6989 60.3749 11.6989C59.4657 11.6989 58.7285 12.4356 58.7285 13.3441V37.6559C58.7285 45.0256 52.7499 51 45.375 51C38.0001 51 32.0215 45.0256 32.0215 37.6559V13.3441C32.0215 12.4356 31.2842 11.6989 30.3751 11.6989C29.4656 11.6989 28.7287 12.4356 28.7287 13.3441V37.6559C28.7287 45.0256 22.75 51 15.375 51C7.99996 51 2.02136 45.0256 2.02136 37.6559V13.3441Z" fill="white"/>
</svg>
